<mxfile host="app.diagrams.net" modified="2023-06-25T01:01:52.532Z" agent="Mozilla/5.0 (Windows NT 10.0; Win64; x64) AppleWebKit/537.36 (KHTML, like Gecko) Chrome/114.0.0.0 Safari/537.36 Edg/114.0.1823.51" version="21.5.0" etag="kjOgNcnxL8-OFVNdFoAI" type="github">
  <diagram name="第 1 页" id="qU-ciTHmsH8KVysOxmX2">
    <mxGraphModel>
      <root>
        <mxCell id="0" />
        <mxCell id="1" parent="0" />
      </root>
    </mxGraphModel>
  </diagram>
</mxfile>
